<?xml version="1.0" encoding="utf-8"?>
<!-- Generator: Adobe Illustrator 23.0.5, SVG Export Plug-In . SVG Version: 6.00 Build 0)  -->
<svg version="1.1" id="Layer_1" xmlns="http://www.w3.org/2000/svg" xmlns:xlink="http://www.w3.org/1999/xlink" x="0px" y="0px"
	 viewBox="0 0 40 40" style="enable-background:new 0 0 40 40;" xml:space="preserve">
<path d="M17.5,31.1l-6.6,6.6c-1.5-0.8-3-1.8-4.2-2.9l6-6C14.1,29.7,15.8,30.6,17.5,31.1z M20.1,31.2l-7.2,7.2
	c1.9,0.7,3.8,1.1,5.9,1.3l20.9-20.9c-0.1-2.1-0.6-4.1-1.3-5.9l-7.2,7.2C31.2,26.2,26.2,31.2,20.1,31.2z M8.9,22.4L2.3,29
	c0.8,1.5,1.8,3,2.9,4.2l6-6C10.3,25.9,9.4,24.2,8.9,22.4z M31.1,17.5l6.6-6.6c-0.8-1.5-1.8-3-2.9-4.2l-6,6
	C29.7,14.1,30.6,15.8,31.1,17.5z M27.2,11.4l6-6c-1.3-1.2-2.7-2.1-4.2-2.9l-6.6,6.6C24.2,9.4,25.9,10.3,27.2,11.4z M1.5,27.1
	l7.2-7.2c0.1-6.1,5-11.1,11.2-11.2l7.2-7.2c-1.9-0.7-3.8-1.1-5.9-1.3l-21,21C0.3,23.3,0.8,25.2,1.5,27.1z M21.6,39.8
	c9.6-0.8,17.2-8.4,18-18L21.6,39.8z M18.4,0.3c-9.6,0.8-17.2,8.4-18,18L18.4,0.3z" fill="#F05A22"/>
</svg>
