<?xml version="1.0" encoding="utf-8"?>
<!-- Generator: Adobe Illustrator 23.0.5, SVG Export Plug-In . SVG Version: 6.00 Build 0)  -->
<svg version="1.1" id="Layer_1" xmlns="http://www.w3.org/2000/svg" xmlns:xlink="http://www.w3.org/1999/xlink" x="0px" y="0px"
	 viewBox="0 0 40 40" style="enable-background:new 0 0 40 40;" xml:space="preserve">
<path d="M38.9,3.9v0.9h-5.8V3.9c0-1.6,1.3-2.9,2.9-2.9C37.7,1,38.9,2.3,38.9,3.9z M16.4,3.9c0-1.6-1.3-2.9-2.9-2.9
	s-2.9,1.3-2.9,2.9v0.9h5.8V3.9z M33.2,10.5c0,1.6-0.6,3.1-1.7,4.2c-1.1,1.1-2.6,1.7-4.2,1.7h-4.9c-1.6,0-3.1-0.6-4.2-1.7
	c-1.1-1.1-1.7-2.6-1.7-4.2V8.2h-5.8v2.3c0,3.1,1.2,6.1,3.4,8.3c1.9,1.9,4.3,3,6.9,3.3V35c0,2.2,1.7,3.9,3.9,3.9s3.9-1.7,3.9-3.9
	V22.1c2.6-0.3,5-1.5,6.9-3.3c2.2-2.2,3.4-5.2,3.4-8.3V8.3h-5.8v2.3H33.2z M19.6,13.9c2.1-3.2,6.5-5.3,13.4-6.3v-2
	C25.6,6.7,21,8.8,18.4,12.3c0.2,0.4,0.5,0.8,0.8,1.2C19.4,13.6,19.5,13.9,19.6,13.9z M11.4,30.6l-0.6-1c0.7-0.8,1.1-1.6,1.3-2.5
	c0.6-2.7-0.9-5.4-4.3-8.5c-2.3-2.1-3.2-3.9-3.1-6.1C4.8,9.6,6.8,8,10.6,7.6v-2c-6.2,0.6-7.7,4-7.8,6.8s1,5.2,3.8,7.7
	c1.7,1.5,4.3,4,3.7,6.6c-0.1,0.4-0.3,0.9-0.6,1.3l-0.1-0.2c-0.7-1-2.1-1.4-3-0.8l-4.7,3.2c-0.9,0.6-1.1,2-0.4,3.1l3.1,4.6
	c0.7,1,2.1,1.4,3,0.8l4.7-3.2c0.9-0.6,1.1-2,0.4-3.1l-0.1-0.1c3.6-2.8,4.2-5.8,4.6-9.3c-0.6-0.3-1.2-0.6-1.8-0.9
	C14.9,25.4,14.4,28.1,11.4,30.6z" fill="#F05A22"/>
</svg>
