<?xml version="1.0" encoding="utf-8"?>
<!-- Generator: Adobe Illustrator 23.0.5, SVG Export Plug-In . SVG Version: 6.00 Build 0)  -->
<svg version="1.1" id="Layer_1" xmlns="http://www.w3.org/2000/svg" xmlns:xlink="http://www.w3.org/1999/xlink" x="0px" y="0px"
	 viewBox="0 0 40 40" style="enable-background:new 0 0 40 40;" xml:space="preserve">
<path d="M0.3,33.6c18.4,0,33.4-15,33.4-33.4h-2h-1.1h-9c-2.3,0-2.5,2.1-2.6,2.5C17.9,11,11.1,17.8,2.8,18.9
	c-0.8,0.1-2.5,0.7-2.5,2.6v1.7v7.3v1.2V33.6z M30.4,1.3C29.9,17,17,29.9,1.3,30.4v-7.2v-1.7c0-1.1,1-1.5,1.5-1.6
	c8.9-1.2,16-8.3,17.1-17.3c0.1-0.5,0.4-1.5,1.6-1.5h1.7h7.3V1.3z M38.3,0.3h-2.7c0,19.5-15.9,35.4-35.4,35.4v2.7
	c0,1.3,1.2,1.4,1.5,1.4c20.6-0.7,37.3-17.4,38-38.1C39.8,1.1,39.4,0.3,38.3,0.3z" fill="#F05A22"/>
</svg>
