<?xml version="1.0" encoding="utf-8"?>
<!-- Generator: Adobe Illustrator 23.0.5, SVG Export Plug-In . SVG Version: 6.00 Build 0)  -->
<svg version="1.1" id="Layer_1" xmlns="http://www.w3.org/2000/svg" xmlns:xlink="http://www.w3.org/1999/xlink" x="0px" y="0px"
	 viewBox="0 0 40 40" style="enable-background:new 0 0 40 40;" xml:space="preserve">
<g>
	<g>
		<path d="M22.9,3.1l-5.7,5.7c-1.6,1.6-2.6,3.7-2.8,5.8l0,0c-0.1,1-0.8,2.3-2,3.4c-1.1,1.1-2.4,1.8-3.4,2l0,0
			c-2.1,0.3-4.2,1.2-5.8,2.8c-3.9,3.9-3.9,10.2,0,14c3.9,3.8,10.2,3.9,14,0c1.6-1.6,2.6-3.7,2.8-5.8l0,0c0.1-1,0.8-2.3,2-3.4
			c1.1-1.1,2.4-1.8,3.4-2l0,0c1.9-0.2,3.8-1,5.3-2.4l0,0l6.2-6.2c3.9-3.9,3.9-10.2,0-14C33.1-0.8,26.7-0.8,22.9,3.1z M13.3,33.1
			c-1.7,1.7-4.6,1.7-6.3,0c-1.7-1.7-1.7-4.6,0-6.3s4.6-1.7,6.3,0C15,28.4,15,31.2,13.3,33.1z M33.1,13.3c-0.5,0.5-1.2,0.9-1.8,1.1
			l0,0c-0.6,0.2-1.2,0.6-1.7,1.1s-0.9,1.1-1.1,1.7l0,0c-0.2,0.7-0.6,1.3-1.1,1.8c-1.7,1.7-4.6,1.7-6.3,0c-1.7-1.7-1.7-4.6,0-6.3
			c0.5-0.5,1.2-0.9,1.8-1.1l0,0c0.6-0.2,1.2-0.6,1.7-1.1s0.9-1.1,1.1-1.7l0,0c0.2-0.7,0.6-1.3,1.1-1.8c1.7-1.7,4.6-1.7,6.3,0
			C34.8,8.8,34.8,11.5,33.1,13.3z M12.3,31.9c-1.2,1.2-3,1.2-4.2,0c-1.2-1.2-1.2-3,0-4.2s3-1.2,4.2,0C13.4,28.9,13.4,30.9,12.3,31.9
			z M31.9,12.3c-1.2,1.2-3,1.2-4.2,0s-1.2-3,0-4.2s3-1.2,4.2,0C33.2,9.1,33.2,11,31.9,12.3z" fill="#F05A22"/>
	</g>
</g>
</svg>
