<?xml version="1.0" encoding="utf-8"?>
<!-- Generator: Adobe Illustrator 23.0.5, SVG Export Plug-In . SVG Version: 6.00 Build 0)  -->
<svg version="1.1" id="Layer_1" xmlns="http://www.w3.org/2000/svg" xmlns:xlink="http://www.w3.org/1999/xlink" x="0px" y="0px"
	 viewBox="0 0 40 40" style="enable-background:new 0 0 40 40;" xml:space="preserve">
<path d="M2.8,39.8c-0.4,0-0.8-0.1-1.2-0.3c-1.2-0.7-1.7-2.2-1-3.5L15.3,9.6c1.9-3.5,6.5-9.4,14.8-9.4h7
	c1.4,0,2.5,1.1,2.5,2.5s-1.1,2.5-2.5,2.5h-7c-5.5,0-8.7,3.7-10.4,6.8L4.9,38.4C4.4,39.3,3.6,39.8,2.8,39.8z M30.9,7.9
	c-4.9,0-8.9,4-8.9,8.9s4,8.9,8.9,8.9s8.9-4,8.9-8.9S35.8,7.9,30.9,7.9z M33.3,16.8c0,1.4-1.1,2.5-2.5,2.5c-1.4,0-2.5-1.1-2.5-2.5
	s1.1-2.5,2.5-2.5C32.3,14.3,33.3,15.4,33.3,16.8z M19.4,23.1c0,0.1,0.1,0.2,0.2,0.3c1.6,3.8,6.2,6.5,11.1,6.5h0.2
	c2.4,0,4.4-0.6,6.5-1.7l0.3-0.1c0.1-0.1,0.3-0.2,0.4-0.2v9c0,0.3-0.1,0.6-0.3,0.8c-0.2,0.2-0.5,0.3-0.8,0.3H13c-0.4,0-0.8-0.2-1-0.5
	c-0.2-0.3-0.2-0.7,0-1.1l7.3-13.1C19.4,23.3,19.4,23.1,19.4,23.1 M19.5,21.4c-0.7,0-1.3,0.5-1.6,1.1l-7.3,13.1
	c-0.5,0.8-0.5,1.9,0,2.8c0.5,0.9,1.5,1.4,2.4,1.4h23.9c0.7,0,1.5-0.3,2-0.8c0.6-0.5,0.8-1.3,0.8-2v-9.5c0-0.7-0.6-1-1-1.2
	c-0.2-0.1-0.3-0.1-0.5-0.1c-0.6,0-1.1,0.3-1.7,0.6c-1.8,1-3.6,1.5-5.7,1.5c-0.1,0-0.1,0-0.2,0c-4.2,0-8.2-2.4-9.5-5.5
	C20.8,21.8,20.1,21.4,19.5,21.4L19.5,21.4z" fill="#F05A22"/>
</svg>
