<svg xmlns="http://www.w3.org/2000/svg" viewBox="0 0 23.92 23.92"><g id="Layer_2" data-name="Layer 2"><g id="Layer_1-2" data-name="Layer 1"><rect width="23.92" height="23.92" fill="#f5f4f3"/><path d="M5.28,16.64c2.23-1.29,3.22-1.88,4.11-2.46,4.83-2.88-2.75-2.34,6.23-5.68h3a12,12,0,0,0-2.79,1.89c-1.13,1.13.41,1.38,1.24,2,1.72,1.07.62,2.19-1.35,4.27Zm10.38-7c.29-.2.59-.4.92-.59H15.52c-.35.19-.68.39-1,.59Zm-1.15,3H13.33c.29.47.4.94-.42,1.45-.39.32-1.15.86-2,1.43h2.54l.95-.9a1.27,1.27,0,0,0,.12-1.92l-.05-.06m-.63-.94c-.2-.38-.13-.63.35-1,.14-.12.32-.25.5-.39H13.57c-.18.13-.35.27-.48.38a.88.88,0,0,0-.3,1.05Z" fill="#58595b"/></g></g></svg>